# Blender v3.4.0 OBJ File: ''
# www.blender.org
mtllib teste.mtl
o Cube.001
v 1.000000 4.890001 0.723109
v 1.000000 8.865547 0.723109
v 1.000000 4.890001 -0.723109
v 1.000000 8.865547 -0.723109
v 0.772126 6.877774 -0.703071
v 0.772126 6.877774 0.479458
v 1.000000 7.871660 -0.723109
v 1.000000 7.871660 0.723109
v 0.772126 5.883887 -0.703071
v 0.772126 5.883887 0.479458
v 2.000000 8.865547 -0.513975
v 2.000000 8.865547 0.513975
v 2.000000 7.871660 -0.513975
v 2.000000 7.871660 0.513975
v 3.000000 8.865547 -0.513975
v 3.000000 8.865547 0.513975
v 3.000000 7.871660 -0.513975
v 3.000000 7.871660 0.513975
v 2.000000 5.871660 -0.513975
v 2.000000 5.871660 0.513975
v 3.000000 5.871660 -0.513975
v 3.000000 5.871660 0.513975
v 0.000000 4.890001 -0.723109
v 0.000000 8.865547 -0.723109
v 0.000000 4.890001 0.723109
v 0.000000 8.865547 0.723109
v 0.000000 6.877774 0.479458
v 0.000000 6.877774 -0.703071
v 0.000000 7.871660 0.723109
v 0.000000 7.871660 -0.723109
v 0.000000 5.883887 -0.703071
v 0.000000 5.883887 0.479458
v 2.475796 0.890001 1.600948
v 2.475796 0.890001 -0.643817
v 0.837885 0.890001 1.600948
v 0.837885 0.890001 -0.643817
v 0.000000 9.865547 -1.057698
v 1.321536 9.865547 -1.057698
v 1.321536 9.865547 1.057698
v 0.000000 9.865547 1.057698
v 0.000000 11.865547 -1.057698
v 1.321536 11.865547 -1.057698
v 1.321536 11.865547 1.057698
v 0.000000 11.865547 1.057698
v -1.000000 4.890001 0.723109
v -1.000000 8.865547 0.723109
v -1.000000 4.890001 -0.723109
v -1.000000 8.865547 -0.723109
v -0.772126 6.877774 -0.703071
v -0.772126 6.877774 0.479458
v -1.000000 7.871660 -0.723109
v -1.000000 7.871660 0.723109
v -0.772126 5.883887 -0.703071
v -0.772126 5.883887 0.479458
v -2.000000 8.865547 -0.513975
v -2.000000 8.865547 0.513975
v -2.000000 7.871660 -0.513975
v -2.000000 7.871660 0.513975
v -3.000000 8.865547 -0.513975
v -3.000000 8.865547 0.513975
v -3.000000 7.871660 -0.513975
v -3.000000 7.871660 0.513975
v -2.000000 5.871660 -0.513975
v -2.000000 5.871660 0.513975
v -3.000000 5.871660 -0.513975
v -3.000000 5.871660 0.513975
v -2.475796 0.890001 1.600948
v -2.475796 0.890001 -0.643817
v -0.837885 0.890001 1.600948
v -0.837885 0.890001 -0.643817
v -1.321536 9.865547 -1.057698
v -1.321536 9.865547 1.057698
v -1.321536 11.865547 -1.057698
v -1.321536 11.865547 1.057698
vt 0.562500 0.375000
vt 0.625000 0.375000
vt 0.625000 0.500000
vt 0.562500 0.500000
vt 0.625000 0.500000
vt 0.562500 0.500000
vt 0.375000 0.750000
vt 0.375000 0.875000
vt 0.375000 0.875000
vt 0.375000 0.750000
vt 0.625000 0.875000
vt 0.625000 0.750000
vt 0.625000 0.750000
vt 0.625000 0.875000
vt 0.437500 0.500000
vt 0.500000 0.500000
vt 0.500000 0.750000
vt 0.437500 0.750000
vt 0.437500 0.375000
vt 0.500000 0.375000
vt 0.562500 0.750000
vt 0.375000 0.375000
vt 0.375000 0.500000
vt 0.625000 0.750000
vt 0.562500 0.750000
vt 0.562500 0.750000
vt 0.625000 0.750000
vt 0.562500 0.500000
vt 0.625000 0.500000
vt 0.562500 0.500000
vt 0.562500 0.500000
vt 0.562500 0.750000
vt 0.562500 0.750000
vt 0.437500 0.875000
vt 0.562500 0.875000
vt 0.500000 0.875000
vt 0.625000 0.375000
vt 0.625000 0.500000
vt 0.250000 0.500000
vt 0.375000 0.500000
vt 0.250000 0.750000
vt 0.250000 0.750000
vt 0.250000 0.500000
vt 0.375000 0.375000
vt 0.625000 0.375000
vt 0.625000 0.500000
vt 0.750000 0.500000
vt 0.750000 0.750000
vt 0.625000 0.750000
vt 0.625000 0.875000
vt 0.562500 0.500000
vt 0.625000 0.500000
vt 0.562500 0.500000
vt 0.625000 0.500000
vt 0.375000 0.750000
vt 0.375000 0.750000
vt 0.375000 0.875000
vt 0.625000 0.750000
vt 0.625000 0.750000
vt 0.437500 0.500000
vt 0.437500 0.750000
vt 0.500000 0.750000
vt 0.500000 0.500000
vt 0.562500 0.750000
vt 0.375000 0.500000
vt 0.625000 0.750000
vt 0.625000 0.750000
vt 0.562500 0.750000
vt 0.562500 0.750000
vt 0.562500 0.500000
vt 0.625000 0.500000
vt 0.562500 0.500000
vt 0.562500 0.500000
vt 0.562500 0.750000
vt 0.562500 0.750000
vt 0.625000 0.500000
vt 0.250000 0.500000
vt 0.250000 0.750000
vt 0.375000 0.500000
vt 0.375000 0.375000
vt 0.625000 0.500000
vt 0.625000 0.750000
vn 0.0000 0.0000 -1.0000
vn 0.2047 0.0000 -0.9788
vn 0.0000 0.2144 0.9768
vn 0.0000 -0.3173 0.9483
vn 1.0000 -0.0000 0.0000
vn 0.9747 -0.2235 0.0000
vn 0.0000 -0.0202 -0.9998
vn 0.0000 0.0202 -0.9998
vn 0.9747 0.2235 0.0000
vn 0.0000 -0.0000 1.0000
vn 0.0000 -1.0000 0.0000
vn 0.2047 -0.0000 0.9788
vn 0.0000 1.0000 0.0000
vn -1.0000 0.0000 0.0000
vn 0.0000 0.2381 0.9712
vn 0.0000 -0.2381 0.9712
vn 0.0000 -0.3173 -0.9483
vn -0.9788 -0.2050 0.0000
vn 0.9382 0.3461 0.0000
vn 0.0000 -0.0198 -0.9998
vn 0.9520 -0.3061 0.0000
vn -0.2047 0.0000 -0.9788
vn -0.9747 -0.2235 0.0000
vn -0.9747 0.2235 0.0000
vn -0.2047 -0.0000 0.9788
vn 0.9788 -0.2050 0.0000
vn -0.9382 0.3461 0.0000
vn -0.9520 -0.3061 0.0000
usemtl None
s off
f 30/1/1 24/2/1 4/3/1 7/4/1
f 7/4/2 4/3/2 11/5/2 13/6/2
f 1/7/3 25/8/3 35/9/3 33/10/3
f 26/11/4 2/12/4 39/13/4 40/14/4
f 9/15/5 5/16/5 6/17/5 10/18/5
f 31/19/1 28/20/1 5/16/1 9/15/1
f 5/16/6 7/4/6 8/21/6 6/17/6
f 28/20/7 30/1/7 7/4/7 5/16/7
f 23/22/8 31/19/8 9/15/8 3/23/8
f 3/23/9 9/15/9 10/18/9 1/7/9
f 12/24/10 14/25/10 18/26/10 16/27/10
f 8/21/11 7/4/11 13/6/11 14/25/11
f 2/12/12 8/21/12 14/25/12 12/24/12
f 4/3/13 2/12/13 12/24/13 11/5/13
f 17/28/5 15/29/5 16/27/5 18/26/5
f 11/5/13 12/24/13 16/27/13 15/29/13
f 13/6/1 17/28/1 21/30/1 19/31/1
f 13/6/1 11/5/1 15/29/1 17/28/1
f 20/32/11 19/31/11 21/30/11 22/33/11
f 17/28/5 18/26/5 22/33/5 21/30/5
f 14/25/14 13/6/14 19/31/14 20/32/14
f 18/26/10 14/25/10 20/32/10 22/33/10
f 1/7/15 10/18/15 32/34/15 25/8/15
f 6/17/16 8/21/16 29/35/16 27/36/16
f 10/18/10 6/17/10 27/36/10 32/34/10
f 4/3/17 24/2/17 37/37/17 38/38/17
f 8/21/10 2/12/10 26/11/10 29/35/10
f 36/39/11 34/40/11 33/10/11 35/41/11
f 25/42/18 23/43/18 36/39/18 35/41/18
f 3/23/19 1/7/19 33/10/19 34/40/19
f 23/22/20 3/23/20 34/40/20 36/44/20
f 38/38/1 37/37/1 41/45/1 42/46/1
f 2/12/21 4/3/21 38/38/21 39/13/21
f 42/46/13 41/47/13 44/48/13 43/49/13
f 39/13/5 38/38/5 42/46/5 43/49/5
f 40/14/10 39/13/10 43/49/10 44/50/10
f 30/1/1 51/51/1 48/52/1 24/2/1
f 51/51/22 57/53/22 55/54/22 48/52/22
f 45/55/3 67/56/3 69/57/3 25/8/3
f 26/11/4 40/14/4 72/58/4 46/59/4
f 53/60/14 54/61/14 50/62/14 49/63/14
f 31/19/1 53/60/1 49/63/1 28/20/1
f 49/63/23 50/62/23 52/64/23 51/51/23
f 28/20/7 49/63/7 51/51/7 30/1/7
f 23/22/8 47/65/8 53/60/8 31/19/8
f 47/65/24 45/55/24 54/61/24 53/60/24
f 56/66/10 60/67/10 62/68/10 58/69/10
f 52/64/11 58/69/11 57/53/11 51/51/11
f 46/59/25 56/66/25 58/69/25 52/64/25
f 48/52/13 55/54/13 56/66/13 46/59/13
f 61/70/14 62/68/14 60/67/14 59/71/14
f 55/54/13 59/71/13 60/67/13 56/66/13
f 57/53/1 63/72/1 65/73/1 61/70/1
f 57/53/1 61/70/1 59/71/1 55/54/1
f 64/74/11 66/75/11 65/73/11 63/72/11
f 61/70/14 65/73/14 66/75/14 62/68/14
f 58/69/5 64/74/5 63/72/5 57/53/5
f 62/68/10 66/75/10 64/74/10 58/69/10
f 45/55/15 25/8/15 32/34/15 54/61/15
f 50/62/16 27/36/16 29/35/16 52/64/16
f 54/61/10 32/34/10 27/36/10 50/62/10
f 48/52/17 71/76/17 37/37/17 24/2/17
f 52/64/10 29/35/10 26/11/10 46/59/10
f 70/77/11 69/78/11 67/56/11 68/79/11
f 25/42/26 69/78/26 70/77/26 23/43/26
f 47/65/27 68/79/27 67/56/27 45/55/27
f 23/22/20 70/80/20 68/79/20 47/65/20
f 71/76/1 73/81/1 41/45/1 37/37/1
f 46/59/28 72/58/28 71/76/28 48/52/28
f 73/81/13 74/82/13 44/48/13 41/47/13
f 72/58/14 74/82/14 73/81/14 71/76/14
f 40/14/10 44/50/10 74/82/10 72/58/10
